<svg xmlns="http://www.w3.org/2000/svg" enable-background="new 0 0 580 580" height="310" width="538" style=""><rect id="backgroundrect" width="100%" height="100%" x="0" y="0" fill="none" stroke="none" style="" class=""/>



<g class="currentLayer" style=""><title>Layer 1</title><path d="m12.703000000000003,250.135 c2.367,-5.481 32.405,-47.876 66.75,-94.211 c49.255,-66.448 74.614,-89.479 120.05,-109.024 c71.126,-30.597 142.329,-32.355 168.26,-4.154 c61.336,66.705 124.631,142.878 142.858,171.926 c25.686,40.934 12.602,60.074 -14.51,21.227 c-10.688,-15.314 -40.647,-51.885 -66.578,-81.269 c-111.094,-125.887 -111.433,-126.017 -214.625,-82.056 c-50.718,21.607 -70.43,39.487 -113.298,102.77 c-28.543,42.137 -61.192,78.444 -72.554,80.684 c-11.361,2.24 -18.72,-0.4130000000000002 -16.353,-5.893 z" fill="#009900" fill-opacity="1" stroke="param(outline)" stroke-opacity="param(outline-opacity)" stroke-width="param(outline-width)" id="svg_1" class=""/><path d="m12.703000000000003,250.135 c2.367,-5.481 32.405,-47.876 66.75,-94.211 c49.255,-66.448 74.614,-89.479 120.05,-109.024 c71.126,-30.597 142.329,-32.355 168.26,-4.154 c61.336,66.705 124.631,142.878 142.858,171.926 c34.402,55.715 -22.69,62.232 -174.088,65.958 c-80.614,2.313 -85.242,0.8740000000000004 -168.923,1.714 c-39.074,-1.123 -156.361,-19.741 -154.907,-32.209 z" fill="#0bd50b" opacity="0.41" id="svg_2" class="" fill-opacity="1"/><path d="m128.979,257.182 c0,-32.367 90.191,-134.77 118.699,-134.77 c45.606,0 92.848,28.288 127.256,76.202 c20.306,28.275 36.92,54.521 36.92,58.322 c0,3.803 -63.646,6.913 -141.438,6.913 c-77.791,0 -141.437,-3 -141.437,-6.667 z" fill="#ebeb1a" fill-opacity="1" stroke="param(outline)" stroke-opacity="param(outline-opacity)" stroke-width="param(outline-width)" id="svg_3" class=""/></g></svg>