<svg xmlns="http://www.w3.org/2000/svg" height="249" width="367" style=""><rect id="backgroundrect" width="100%" height="100%" x="0" y="0" fill="none" stroke="none" style="" class=""/><title>wetland-15.svg</title><g class="currentLayer" style=""><title>Layer 1</title><rect fill="none" x="0" y="0" width="19" height="19" id="svg_1"/><path fill="#41e841" d="M71.70068901062012,71.4977793266944 C79.16017148971558,65.1992227123908 88.6960228565216,62.01339744498053 98.37930870056152,62.58388658072272 c21.541230227279666,-1.5492345592498786 40.639260546112055,13.96985271148682 43.87930870056152,35.65557098388672 l13.690344314575196,83.43403610229491 c-11.222571993255618,-5.157578342819216 -24.149416336441043,-4.829547089767457 -35.10344696044922,0.8913892745971685 L106.80413597106934,98.23945756460944 C101.66850168075563,82.81307477843085 87.71839185867309,72.18771462523262 71.70068901062012,71.4977793266944 zM177.01102989196778,191.65705354239265 c6.697737680053713,-5.483826817321779 14.480171871185306,-9.43624686088562 22.817240524291993,-11.588060569763188 L221.2413730621338,44.75610108877936 c5.135634290313721,-15.426382786178593 19.085744112396238,-26.051742939376833 35.10344696044922,-26.74167823791504 c-7.368213516998293,-6.212983243942264 -16.761895923614507,-9.393460175704957 -26.327585220336914,-8.91389274597168 C208.47600457496642,7.551295545642766 189.37797425613402,23.07038281637945 186.13792610168457,44.75610108877936 l-22.817240524291993,138.87844898223878 C168.21059573898316,185.68831095969003 172.81265763549806,188.38565490462102 177.01102989196778,191.65705354239265 zM252.8344753265381,182.74316079642097 L252.8344753265381,182.74316079642097 c2.746844724655152,-2.2766082073211673 5.683248062896732,-4.303627417755128 8.775861740112305,-6.061447067260746 L273.8965435028076,98.23945756460944 c5.135634290313721,-15.426382786178593 19.085744112396238,-26.051742939376833 35.10344696044922,-26.74167823791504 c-7.368213516998293,-6.212983243942264 -16.761895923614507,-9.393460175704957 -26.327585220336914,-8.91389274597168 c-21.541230227279666,-1.5492345592498786 -40.639260546112055,13.96985271148682 -43.87930870056152,35.65557098388672 l-11.759654731750494,71.31114196777344 C236.5657828327179,171.7434171478919 245.42413767318726,176.27167466284553 252.8344753265381,182.74316079642097 zM291.4482669830322,205.2061705162696 L291.4482669830322,205.2061705162696 c-7.627979024505617,-0.1782778549194337 -15.057623573684696,2.485193297576905 -20.886550941467284,7.487669906616213 l-8.249310035705568,7.309392051696779 c-4.9969756748199465,4.538954186248779 -12.554747805404665,4.538954186248779 -17.55172348022461,0 c-2.632758522033692,-2.1393342590332036 -5.089999809265138,-4.635224227905273 -7.72275833129883,-6.952836341857912 c-12.419599534606938,-10.639622381591801 -30.582122991943358,-10.639622381591801 -43.001722526550296,0 c-2.8082757568359384,2.3176121139526367 -5.4410342788696315,4.991779937744141 -8.249310035705568,7.309392051696779 c-4.9969756748199465,4.538954186248779 -12.554747805404665,4.538954186248779 -17.55172348022461,0 c-2.8082757568359384,-2.3176121139526367 -5.4410342788696315,-4.991779937744141 -8.249310035705568,-7.309392051696779 c-12.389761604690555,-10.539786782836917 -30.436443687057498,-10.539786782836917 -42.826205291748046,0 c-2.632758522033692,2.3176121139526367 -5.089999809265138,4.813502082824708 -7.72275833129883,6.952836341857912 c-1.5656137344360361,1.2746866626739508 -3.350624012374879,2.2427354148864747 -5.2655170440673835,2.8524456787109385 c-5.128613600921631,1.1623716140747076 -10.476623745346073,-0.5366163433074953 -14.041378784179688,-4.45694637298584 c-4.344051561355592,-3.81514609527588 -8.981216904830934,-7.271953702163698 -13.865861549377442,-10.340115585327151 C72.64146138916016,205.9567202854804 68.4957443031311,204.96549541212835 64.32896514892579,205.2061705162696 H63.275861740112305 c-4.8460308528900145,0 -8.775861740112305,3.9916411716461195 -8.775861740112305,8.91389274597168 S58.42983088722229,223.03395600821295 63.275861740112305,223.03395600821295 l0,0 c4.317723976135254,0.2585028896331788 8.35813072128296,2.2463009719848634 11.233103027343754,5.5266135025024425 L80.82758522033691,233.1957937386207 c11.789492661666877,9.805282020568848 28.623350651550297,10.245628322219853 40.89551570892334,1.0696671295166018 c3.3348274612426767,-2.4958899688720706 6.318620452880861,-5.704891357421877 9.653447914123536,-8.37905918121338 c4.9969756748199465,-4.538954186248779 12.554747805404665,-4.538954186248779 17.55172348022461,0 l6.8451721572876,6.239724922180177 c12.17563057823182,11.03361644096375 30.403095412445072,11.559536112976078 43.17723976135254,1.2479449844360353 c2.632758522033692,-1.9610564041137701 4.738965339660645,-4.45694637298584 7.3717238616943375,-6.596280632019045 c5.223392907714845,-5.416081232452395 13.779858104324342,-5.5034373813629145 19.112071697616578,-0.1978884189605714 c0.06494137687683113,0.06596280632019051 0.12988275375366218,0.13192561264038088 0.1948241306304934,0.1978884189605714 l6.8451721572876,6.239724922180177 c8.540668645477297,7.352178736877443 20.158154417037967,9.83380647735596 30.891033325195316,6.596280632019045 c6.713534231185915,-1.8469585769653327 12.788185727691655,-5.5497896236419715 17.55172348022461,-10.69667129516602 c2.718761967086793,-3.159083589172364 6.448503206634523,-5.24136893463135 10.531034088134769,-5.883169212341311 l0,0 c4.8460308528900145,0 8.775861740112305,-3.9916411716461195 8.775861740112305,-8.91389274597168 S296.29429783592224,205.2061705162696 291.4482669830322,205.2061705162696 z" id="svg_2" class="selected" fill-opacity="1" opacity="0.69"/></g></svg>